<svg width="300" height="100" viewBox="0 0 300 100" fill="none" xmlns="http://www.w3.org/2000/svg">
<path d="M13.2443 68.3182V35.5909H20.8125V38.0966H16.108V65.8125H20.8125V68.3182H13.2443ZM42.1396 53.7955L25.6737 62.1818V58.9091L38.3043 52.8239L38.2021 53.0284V52.517L38.3043 52.7216L25.6737 46.6364V43.3636L42.1396 51.75V53.7955ZM59.5291 53.7955V51.75L75.995 43.3636V46.6364L63.3643 52.7216L63.4666 52.517V53.0284L63.3643 52.8239L75.995 58.9091V62.1818L59.5291 53.7955ZM88.4244 35.5909V68.3182H80.8562V65.8125H85.5607V38.0966H80.8562V35.5909H88.4244Z" fill="black"/>
<path d="M46 60C50.0495 63.6019 52.2415 63.5655 56 60" stroke="#3B82F6"/>
<path d="M122.239 48H119.068C118.881 47.0881 118.553 46.2869 118.084 45.5966C117.624 44.9062 117.061 44.3267 116.396 43.858C115.74 43.3807 115.011 43.0227 114.21 42.7841C113.409 42.5455 112.574 42.4261 111.705 42.4261C110.119 42.4261 108.683 42.8267 107.396 43.6278C106.118 44.429 105.099 45.6094 104.341 47.169C103.591 48.7287 103.216 50.642 103.216 52.9091C103.216 55.1761 103.591 57.0895 104.341 58.6491C105.099 60.2088 106.118 61.3892 107.396 62.1903C108.683 62.9915 110.119 63.392 111.705 63.392C112.574 63.392 113.409 63.2727 114.21 63.0341C115.011 62.7955 115.74 62.4418 116.396 61.973C117.061 61.4957 117.624 60.9119 118.084 60.2216C118.553 59.5227 118.881 58.7216 119.068 57.8182H122.239C122 59.1562 121.565 60.3537 120.935 61.4105C120.304 62.4673 119.52 63.3665 118.582 64.108C117.645 64.8409 116.592 65.3991 115.425 65.7827C114.266 66.1662 113.026 66.358 111.705 66.358C109.472 66.358 107.486 65.8125 105.747 64.7216C104.009 63.6307 102.641 62.0795 101.643 60.0682C100.646 58.0568 100.148 55.6705 100.148 52.9091C100.148 50.1477 100.646 47.7614 101.643 45.75C102.641 43.7386 104.009 42.1875 105.747 41.0966C107.486 40.0057 109.472 39.4602 111.705 39.4602C113.026 39.4602 114.266 39.652 115.425 40.0355C116.592 40.419 117.645 40.9815 118.582 41.723C119.52 42.456 120.304 43.3509 120.935 44.4077C121.565 45.456 122 46.6534 122.239 48ZM134.93 66.4091C133.157 66.4091 131.602 65.9872 130.264 65.1435C128.934 64.2997 127.895 63.1193 127.145 61.6023C126.403 60.0852 126.032 58.3125 126.032 56.2841C126.032 54.2386 126.403 52.4531 127.145 50.9276C127.895 49.402 128.934 48.2173 130.264 47.3736C131.602 46.5298 133.157 46.108 134.93 46.108C136.703 46.108 138.254 46.5298 139.583 47.3736C140.922 48.2173 141.961 49.402 142.703 50.9276C143.453 52.4531 143.828 54.2386 143.828 56.2841C143.828 58.3125 143.453 60.0852 142.703 61.6023C141.961 63.1193 140.922 64.2997 139.583 65.1435C138.254 65.9872 136.703 66.4091 134.93 66.4091ZM134.93 63.6989C136.277 63.6989 137.385 63.3537 138.254 62.6634C139.123 61.973 139.767 61.0653 140.184 59.9403C140.602 58.8153 140.811 57.5966 140.811 56.2841C140.811 54.9716 140.602 53.7486 140.184 52.6151C139.767 51.4815 139.123 50.5653 138.254 49.8665C137.385 49.1676 136.277 48.8182 134.93 48.8182C133.583 48.8182 132.475 49.1676 131.606 49.8665C130.737 50.5653 130.093 51.4815 129.676 52.6151C129.258 53.7486 129.049 54.9716 129.049 56.2841C129.049 57.5966 129.258 58.8153 129.676 59.9403C130.093 61.0653 130.737 61.973 131.606 62.6634C132.475 63.3537 133.583 63.6989 134.93 63.6989ZM155.848 66.4091C154.212 66.4091 152.767 65.9957 151.514 65.169C150.261 64.3338 149.281 63.1577 148.574 61.6406C147.866 60.1151 147.513 58.3125 147.513 56.233C147.513 54.1705 147.866 52.3807 148.574 50.8636C149.281 49.3466 150.266 48.1747 151.527 47.348C152.788 46.5213 154.246 46.108 155.899 46.108C157.178 46.108 158.188 46.321 158.929 46.7472C159.679 47.1648 160.25 47.642 160.642 48.179C161.043 48.7074 161.354 49.142 161.575 49.483H161.831V39.8182H164.848V66H161.933V62.983H161.575C161.354 63.3409 161.038 63.7926 160.629 64.3381C160.22 64.875 159.636 65.3565 158.878 65.7827C158.119 66.2003 157.109 66.4091 155.848 66.4091ZM156.257 63.6989C157.467 63.6989 158.49 63.3835 159.325 62.7528C160.161 62.1136 160.795 61.2315 161.23 60.1065C161.665 58.973 161.882 57.6648 161.882 56.1818C161.882 54.7159 161.669 53.4332 161.243 52.3338C160.817 51.2259 160.186 50.3651 159.351 49.7514C158.516 49.1293 157.484 48.8182 156.257 48.8182C154.979 48.8182 153.913 49.1463 153.061 49.8026C152.217 50.4503 151.582 51.3324 151.156 52.4489C150.739 53.5568 150.53 54.8011 150.53 56.1818C150.53 57.5795 150.743 58.8494 151.169 59.9915C151.604 61.125 152.243 62.0284 153.087 62.7017C153.939 63.3665 154.996 63.6989 156.257 63.6989ZM179.026 66.4091C177.134 66.4091 175.501 65.9915 174.129 65.1562C172.766 64.3125 171.713 63.1364 170.972 61.6278C170.239 60.1108 169.872 58.3466 169.872 56.3352C169.872 54.3239 170.239 52.5511 170.972 51.017C171.713 49.4744 172.744 48.2727 174.065 47.4119C175.395 46.5426 176.946 46.108 178.719 46.108C179.741 46.108 180.751 46.2784 181.749 46.6193C182.746 46.9602 183.653 47.5142 184.472 48.2812C185.29 49.0398 185.942 50.0455 186.428 51.2983C186.913 52.5511 187.156 54.0937 187.156 55.9261V57.2045H172.02V54.5966H184.088C184.088 53.4886 183.866 52.5 183.423 51.6307C182.989 50.7614 182.366 50.0753 181.557 49.5724C180.756 49.0696 179.81 48.8182 178.719 48.8182C177.517 48.8182 176.477 49.1165 175.599 49.7131C174.73 50.3011 174.061 51.0682 173.592 52.0142C173.124 52.9602 172.889 53.9744 172.889 55.0568V56.7955C172.889 58.2784 173.145 59.5355 173.656 60.5668C174.176 61.5895 174.896 62.3693 175.817 62.9062C176.737 63.4347 177.807 63.6989 179.026 63.6989C179.818 63.6989 180.534 63.5881 181.173 63.3665C181.821 63.1364 182.379 62.7955 182.848 62.3438C183.317 61.8835 183.679 61.3125 183.935 60.6307L186.849 61.4489C186.543 62.4375 186.027 63.3068 185.303 64.0568C184.578 64.7983 183.683 65.3778 182.618 65.7955C181.553 66.2045 180.355 66.4091 179.026 66.4091Z" fill="black"/>
<path d="M192.155 66V39.8182H195.325V52.8068H195.632L207.393 39.8182H211.536L200.541 51.6307L211.536 66H207.7L198.598 53.8295L195.325 57.5114V66H192.155ZM221.009 66.4602C219.764 66.4602 218.635 66.2259 217.621 65.7571C216.607 65.2798 215.801 64.5938 215.205 63.6989C214.608 62.7955 214.31 61.7045 214.31 60.4261C214.31 59.3011 214.531 58.3892 214.974 57.6903C215.418 56.983 216.01 56.429 216.751 56.0284C217.493 55.6278 218.311 55.3295 219.206 55.1335C220.109 54.929 221.017 54.767 221.929 54.6477C223.122 54.4943 224.089 54.3793 224.831 54.3026C225.581 54.2173 226.126 54.0767 226.467 53.8807C226.817 53.6847 226.991 53.3437 226.991 52.858V52.7557C226.991 51.4943 226.646 50.5142 225.956 49.8153C225.274 49.1165 224.239 48.767 222.849 48.767C221.409 48.767 220.28 49.0824 219.462 49.7131C218.643 50.3437 218.068 51.017 217.736 51.733L214.872 50.7102C215.384 49.517 216.065 48.5881 216.918 47.9233C217.778 47.25 218.716 46.7812 219.73 46.517C220.753 46.2443 221.759 46.108 222.747 46.108C223.378 46.108 224.102 46.1847 224.92 46.3381C225.747 46.483 226.544 46.7855 227.311 47.2457C228.087 47.706 228.73 48.4006 229.241 49.3295C229.753 50.2585 230.009 51.5028 230.009 53.0625V66H226.991V63.3409H226.838C226.634 63.767 226.293 64.223 225.815 64.7088C225.338 65.1946 224.703 65.608 223.911 65.9489C223.118 66.2898 222.151 66.4602 221.009 66.4602ZM221.469 63.75C222.662 63.75 223.668 63.5156 224.486 63.0469C225.313 62.5781 225.935 61.973 226.352 61.2315C226.778 60.4901 226.991 59.7102 226.991 58.892V56.1307C226.864 56.2841 226.582 56.4247 226.148 56.5526C225.722 56.6719 225.227 56.7784 224.665 56.8722C224.111 56.9574 223.57 57.0341 223.041 57.1023C222.521 57.1619 222.099 57.2131 221.776 57.2557C220.991 57.358 220.259 57.5241 219.577 57.7543C218.903 57.9759 218.358 58.3125 217.94 58.7642C217.531 59.2074 217.327 59.8125 217.327 60.5795C217.327 61.6278 217.714 62.4205 218.49 62.9574C219.274 63.4858 220.267 63.75 221.469 63.75ZM243.441 73.7727C241.984 73.7727 240.731 73.5852 239.683 73.2102C238.635 72.8438 237.761 72.358 237.062 71.7528C236.372 71.1563 235.822 70.517 235.413 69.8352L237.816 68.1477C238.089 68.5057 238.434 68.9148 238.852 69.375C239.27 69.8438 239.841 70.2486 240.565 70.5895C241.298 70.9389 242.257 71.1136 243.441 71.1136C245.027 71.1136 246.335 70.7301 247.366 69.9631C248.397 69.196 248.913 67.9943 248.913 66.358V62.3693H248.657C248.436 62.7273 248.12 63.1705 247.711 63.6989C247.311 64.2188 246.731 64.6832 245.973 65.0923C245.223 65.4929 244.208 65.6932 242.93 65.6932C241.345 65.6932 239.922 65.3182 238.66 64.5682C237.407 63.8182 236.414 62.7273 235.681 61.2955C234.957 59.8636 234.595 58.125 234.595 56.0795C234.595 54.0682 234.949 52.3168 235.656 50.8253C236.363 49.3253 237.348 48.1662 238.609 47.348C239.87 46.5213 241.328 46.108 242.981 46.108C244.26 46.108 245.274 46.321 246.024 46.7472C246.782 47.1648 247.362 47.642 247.762 48.179C248.172 48.7074 248.487 49.142 248.708 49.483H249.015V46.3636H251.93V66.5625C251.93 68.25 251.547 69.6222 250.779 70.679C250.021 71.7443 248.998 72.5241 247.711 73.0185C246.433 73.5213 245.01 73.7727 243.441 73.7727ZM243.339 62.983C244.549 62.983 245.572 62.706 246.407 62.152C247.243 61.598 247.877 60.8011 248.312 59.7614C248.747 58.7216 248.964 57.4773 248.964 56.0284C248.964 54.6136 248.751 53.3651 248.325 52.2827C247.899 51.2003 247.268 50.3523 246.433 49.7386C245.598 49.125 244.566 48.8182 243.339 48.8182C242.061 48.8182 240.995 49.142 240.143 49.7898C239.299 50.4375 238.664 51.3068 238.238 52.3977C237.821 53.4886 237.612 54.6989 237.612 56.0284C237.612 57.392 237.825 58.598 238.251 59.6463C238.686 60.6861 239.325 61.5043 240.169 62.1009C241.021 62.6889 242.078 62.983 243.339 62.983ZM265.686 66.4091C263.794 66.4091 262.162 65.9915 260.789 65.1562C259.426 64.3125 258.373 63.1364 257.632 61.6278C256.899 60.1108 256.532 58.3466 256.532 56.3352C256.532 54.3239 256.899 52.5511 257.632 51.017C258.373 49.4744 259.404 48.2727 260.725 47.4119C262.055 46.5426 263.606 46.108 265.379 46.108C266.402 46.108 267.412 46.2784 268.409 46.6193C269.406 46.9602 270.314 47.5142 271.132 48.2812C271.95 49.0398 272.602 50.0455 273.088 51.2983C273.574 52.5511 273.816 54.0937 273.816 55.9261V57.2045H258.68V54.5966H270.748C270.748 53.4886 270.527 52.5 270.083 51.6307C269.649 50.7614 269.027 50.0753 268.217 49.5724C267.416 49.0696 266.47 48.8182 265.379 48.8182C264.177 48.8182 263.137 49.1165 262.26 49.7131C261.39 50.3011 260.721 51.0682 260.252 52.0142C259.784 52.9602 259.549 53.9744 259.549 55.0568V56.7955C259.549 58.2784 259.805 59.5355 260.316 60.5668C260.836 61.5895 261.556 62.3693 262.477 62.9062C263.397 63.4347 264.467 63.6989 265.686 63.6989C266.478 63.6989 267.194 63.5881 267.833 63.3665C268.481 63.1364 269.039 62.7955 269.508 62.3438C269.977 61.8835 270.339 61.3125 270.595 60.6307L273.51 61.4489C273.203 62.4375 272.687 63.3068 271.963 64.0568C271.238 64.7983 270.343 65.3778 269.278 65.7955C268.213 66.2045 267.015 66.4091 265.686 66.4091Z" fill="#3B82F6"/>
</svg>
